<svg width="90" height="87" viewBox="0 0 90 87" fill="none" xmlns="http://www.w3.org/2000/svg">
<path d="M30.6055 69.777C30.6055 70.1329 30.1933 70.4177 29.6736 70.4177C29.0821 70.4711 28.67 70.1863 28.67 69.777C28.67 69.4211 29.0821 69.1364 29.6019 69.1364C30.1395 69.083 30.6055 69.3677 30.6055 69.777ZM25.0319 68.9762C24.9064 69.3321 25.2648 69.7414 25.8025 69.8482C26.2685 70.0262 26.8061 69.8482 26.9136 69.4923C27.0212 69.1364 26.6807 68.7271 26.143 68.5669C25.677 68.4424 25.1573 68.6203 25.0319 68.9762ZM32.9532 68.6737C32.4335 68.7983 32.0751 69.1364 32.1288 69.5457C32.1826 69.9016 32.6485 70.1329 33.1862 70.0084C33.7059 69.8838 34.0644 69.5457 34.0106 69.1898C33.9568 68.8517 33.4729 68.6203 32.9532 68.6737ZM44.7456 0.480957C19.8884 0.480957 0.873535 19.2197 0.873535 43.9022C0.873535 63.6375 13.3828 80.5256 31.2507 86.4693C33.5446 86.8786 34.3511 85.4727 34.3511 84.316C34.3511 83.2127 34.2973 77.1266 34.2973 73.3895C34.2973 73.3895 21.7522 76.0589 19.1177 68.0864C19.1177 68.0864 17.0747 62.9079 14.1355 61.5732C14.1355 61.5732 10.0315 58.7793 14.4223 58.8327C14.4223 58.8327 18.8848 59.1886 21.34 63.424C25.2648 70.2931 31.8421 68.3178 34.4049 67.1433C34.8171 64.296 35.982 62.3207 37.2723 61.1462C27.2541 60.0428 17.1464 58.6014 17.1464 41.482C17.1464 36.5882 18.5084 34.1324 21.3759 31.0004C20.9099 29.8437 19.3866 25.0745 21.8418 18.9172C25.5874 17.7605 34.2077 23.722 34.2077 23.722C37.792 22.7255 41.6452 22.2094 45.4625 22.2094C49.2798 22.2094 53.1329 22.7255 56.7173 23.722C56.7173 23.722 65.3376 17.7427 69.0832 18.9172C71.5384 25.0923 70.0151 29.8437 69.5491 31.0004C72.4166 34.1502 74.1729 36.606 74.1729 41.482C74.1729 58.6548 63.6171 60.025 53.5989 61.1462C55.2477 62.552 56.6456 65.2213 56.6456 69.4033C56.6456 75.4004 56.5918 82.8212 56.5918 84.2804C56.5918 85.4371 57.4162 86.843 59.6923 86.4337C77.6139 80.5256 89.7647 63.6375 89.7647 43.9022C89.7647 19.2197 69.6029 0.480957 44.7456 0.480957ZM18.2933 61.858C18.0604 62.0359 18.1141 62.4452 18.4188 62.7834C18.7055 63.0681 19.1177 63.1927 19.3507 62.9613C19.5837 62.7834 19.5299 62.3741 19.2253 62.0359C18.9385 61.7512 18.5263 61.6266 18.2933 61.858ZM16.3578 60.4165C16.2324 60.6479 16.4116 60.9326 16.77 61.1106C17.0567 61.2885 17.4152 61.2351 17.5406 60.986C17.6661 60.7547 17.4869 60.4699 17.1284 60.292C16.77 60.1852 16.4833 60.2386 16.3578 60.4165ZM22.1644 66.7518C21.8777 66.9831 21.9852 67.517 22.3974 67.8551C22.8096 68.2644 23.3293 68.3178 23.5623 68.0331C23.7953 67.8017 23.6877 67.2678 23.3293 66.9297C22.935 66.5204 22.3974 66.467 22.1644 66.7518ZM20.1213 64.1358C19.8346 64.3138 19.8346 64.7765 20.1213 65.1858C20.4081 65.5951 20.892 65.773 21.125 65.5951C21.4117 65.3637 21.4117 64.901 21.125 64.4917C20.8741 64.0824 20.4081 63.9045 20.1213 64.1358Z" fill="white"/>
</svg>
