<svg width="40" height="39" viewBox="0 0 40 39" fill="none" xmlns="http://www.w3.org/2000/svg">
<path d="M13.379 31.1824C13.379 31.3426 13.1935 31.4707 12.9597 31.4707C12.6935 31.4947 12.5081 31.3666 12.5081 31.1824C12.5081 31.0223 12.6935 30.8941 12.9274 30.8941C13.1694 30.8701 13.379 30.9982 13.379 31.1824ZM10.871 30.8221C10.8145 30.9822 10.9758 31.1664 11.2177 31.2145C11.4274 31.2945 11.6694 31.2145 11.7177 31.0543C11.7661 30.8941 11.6129 30.71 11.371 30.6379C11.1613 30.5818 10.9274 30.6619 10.871 30.8221ZM14.4355 30.6859C14.2016 30.742 14.0403 30.8941 14.0645 31.0783C14.0887 31.2385 14.2984 31.3426 14.5403 31.2865C14.7742 31.2305 14.9355 31.0783 14.9113 30.9182C14.8871 30.766 14.6694 30.6619 14.4355 30.6859ZM19.7419 0C8.55645 0 0 8.43223 0 19.5391C0 28.4197 5.62903 36.0191 13.6694 38.6938C14.7016 38.8779 15.0645 38.2453 15.0645 37.7248C15.0645 37.2283 15.0403 34.4897 15.0403 32.808C15.0403 32.808 9.39516 34.0092 8.20968 30.4217C8.20968 30.4217 7.29032 28.0914 5.96774 27.4908C5.96774 27.4908 4.12097 26.2336 6.09677 26.2576C6.09677 26.2576 8.10484 26.4178 9.20968 28.3236C10.9758 31.4146 13.9355 30.5258 15.0887 29.9973C15.2742 28.716 15.7984 27.8271 16.379 27.2986C11.871 26.8021 7.32258 26.1535 7.32258 18.45C7.32258 16.2479 7.93548 15.1428 9.22581 13.7334C9.01613 13.2129 8.33064 11.0668 9.43548 8.29609C11.121 7.77559 15 10.4582 15 10.4582C16.6129 10.0098 18.3468 9.77754 20.0645 9.77754C21.7823 9.77754 23.5161 10.0098 25.129 10.4582C25.129 10.4582 29.0081 7.76758 30.6935 8.29609C31.7984 11.0748 31.1129 13.2129 30.9032 13.7334C32.1936 15.1508 32.9839 16.2559 32.9839 18.45C32.9839 26.1775 28.2339 26.7941 23.7258 27.2986C24.4677 27.9312 25.0968 29.1324 25.0968 31.0143C25.0968 33.7129 25.0726 37.0521 25.0726 37.7088C25.0726 38.2293 25.4435 38.8619 26.4677 38.6777C34.5323 36.0191 40 28.4197 40 19.5391C40 8.43223 30.9274 0 19.7419 0ZM7.83871 27.6189C7.73387 27.699 7.75806 27.8832 7.89516 28.0354C8.02419 28.1635 8.20968 28.2195 8.31452 28.1154C8.41935 28.0354 8.39516 27.8512 8.25806 27.699C8.12903 27.5709 7.94355 27.5148 7.83871 27.6189ZM6.96774 26.9703C6.91129 27.0744 6.99194 27.2025 7.15323 27.2826C7.28226 27.3627 7.44355 27.3387 7.5 27.2266C7.55645 27.1225 7.47581 26.9943 7.31452 26.9143C7.15323 26.8662 7.02419 26.8902 6.96774 26.9703ZM9.58065 29.8211C9.45161 29.9252 9.5 30.1654 9.68548 30.3176C9.87097 30.5018 10.1048 30.5258 10.2097 30.3977C10.3145 30.2936 10.2661 30.0533 10.1048 29.9012C9.92742 29.717 9.68548 29.693 9.58065 29.8211ZM8.66129 28.6439C8.53226 28.724 8.53226 28.9322 8.66129 29.1164C8.79032 29.3006 9.00806 29.3807 9.1129 29.3006C9.24193 29.1965 9.24193 28.9883 9.1129 28.8041C9 28.6199 8.79032 28.5398 8.66129 28.6439Z" fill="white"/>
</svg>
