<svg width="76" height="76" viewBox="0 0 76 76" fill="none" xmlns="http://www.w3.org/2000/svg">
<path d="M46.1363 0.925293C45.9675 0.925293 45.7986 0.925293 45.6297 1.09419C44.1096 1.76976 42.5896 3.96537 42.2518 4.30316C40.394 6.83656 39.5495 9.70774 39.5495 12.7478C39.5495 14.9434 39.8873 17.139 40.9007 19.3347C42.9274 24.2326 47.3186 28.286 52.3854 30.3127C52.5543 30.3127 52.7232 30.4816 53.061 30.4816L53.3988 30.6505H53.5676C53.9054 30.8194 54.0743 30.8194 54.4121 30.8194C55.7633 31.1572 57.1144 31.1572 58.2967 31.3261C58.4655 31.3261 58.6344 31.3261 58.9722 31.3261C68.2614 31.3261 71.8081 24.7392 72.9904 22.5436C73.1593 22.3747 73.1593 22.2058 73.3282 22.0369C73.8348 21.1925 73.6659 20.1791 72.8215 19.6724C71.977 19.1658 70.9637 19.3347 70.457 20.1791C67.9236 23.8948 63.7012 24.9081 57.9589 23.3881C57.4522 23.2192 57.1144 23.0503 56.6077 22.8814C56.101 22.7125 55.4255 22.3747 54.9188 22.2058C53.9054 21.6992 52.8921 21.0236 52.0476 20.348C46.9808 16.2946 44.9541 8.01881 47.8253 3.2898C48.1631 2.61423 48.1631 1.76976 47.6564 1.26308C47.1497 1.09419 46.643 0.925293 46.1363 0.925293ZM31.1048 4.30316C30.7671 4.30316 30.2604 4.47205 30.0915 4.64094C27.5581 6.66766 24.8558 10.0455 24.8558 10.2144C20.2957 16.9701 19.9579 26.4282 24.0113 34.535C24.6869 35.8862 25.3625 37.0684 26.2069 38.0818L26.3758 38.4196C27.0514 39.433 27.727 40.4463 28.7403 41.2908C29.0781 41.6286 29.4159 41.9664 29.7537 42.3041L29.9226 42.473L30.0915 42.6419C30.4293 42.9797 30.7671 43.3175 31.1048 43.6553C31.1048 43.6553 31.1048 43.6553 31.2737 43.8242C31.6115 44.162 32.1182 44.4998 32.6249 45.0064L32.7938 45.1753C33.3005 45.5131 33.6382 45.8509 34.1449 46.1887C34.1449 46.1887 34.3138 46.1887 34.3138 46.3576C34.4827 46.5265 34.6516 46.5265 34.8205 46.6954L34.9894 46.8643L35.1583 47.0331C35.4961 47.202 35.8339 47.5398 36.3405 47.7087C36.6783 47.8776 37.0161 48.0465 37.185 48.2154C37.3539 48.2154 37.3539 48.3843 37.5228 48.3843L38.0295 48.7221H38.1984C38.5362 48.891 38.8739 49.0599 39.2117 49.2288L39.7184 49.3977C40.0562 49.5665 40.394 49.7354 40.9007 49.9043H41.0695H41.2384C41.5762 50.0732 41.914 50.0732 42.2518 50.2421L42.9274 50.411C43.2652 50.5799 43.7718 50.7488 44.2785 50.7488C46.643 51.0866 48.8386 51.2555 50.8654 51.2555C51.0342 51.2555 51.372 51.2555 51.5409 51.2555C70.1192 50.9177 75.0171 35.0417 75.0171 34.8728C75.186 34.0284 74.8482 33.1839 74.1726 32.8461C73.497 32.5083 72.4837 32.6772 71.977 33.3528C67.248 40.2774 58.2967 43.1486 49.1764 40.7841C48.8386 40.6152 48.332 40.6152 47.8253 40.4463C47.6564 40.4463 47.6564 40.4463 47.4875 40.2774C47.1497 40.1085 46.9808 40.1085 46.643 39.9396L46.1363 39.7707C45.7986 39.6018 45.6297 39.6018 45.2919 39.4329L45.123 39.7707C44.7852 39.6018 44.2785 39.433 43.9407 39.2641L42.9274 38.7574C42.7585 38.5885 42.5896 38.5885 42.2518 38.4196L42.0829 38.2507L41.914 38.0818C41.7451 37.9129 41.4073 37.744 41.2384 37.5751L41.0695 37.4062L40.9007 37.2373C40.7318 37.0684 40.5629 37.0684 40.394 36.8996C40.0562 36.5618 39.5495 36.224 39.0428 35.8862L38.8739 35.7173C34.4827 32.1705 31.2737 27.6104 29.7537 22.5436C28.4026 17.9835 29.4159 12.0722 32.6249 6.49877C32.9627 5.8232 32.9627 4.97873 32.2871 4.30316C31.9493 4.47205 31.4426 4.30316 31.1048 4.30316ZM12.5266 9.36996C12.1888 9.36996 11.6821 9.53885 11.3443 9.87664C8.13537 12.7478 5.77086 16.4635 5.43308 16.8013C-1.49155 26.766 -0.1404 42.473 4.58861 51.9311C4.7575 52.0999 4.7575 52.2688 4.9264 52.4377V52.6066C5.09529 52.7755 5.09529 52.9444 5.09529 53.1133C5.09529 53.2822 5.26418 53.4511 5.26418 53.4511C5.26418 53.62 5.43308 53.7889 5.60197 53.9578L6.27754 54.9711C6.27754 55.14 6.44644 55.3089 6.44644 55.3089C6.61533 55.4778 6.61533 55.6467 6.78422 55.8156L7.12201 56.1534C7.12201 56.3223 7.2909 56.3223 7.2909 56.4912C7.62869 56.829 7.79758 57.3356 8.13537 57.6734L8.30426 57.8423C8.47315 58.1801 8.81094 58.5179 8.97983 58.8557L9.99319 60.0379L10.1621 60.2068L10.331 60.3757C10.6688 60.7135 11.0066 61.0513 11.1754 61.3891L11.3443 61.558C11.6821 61.8958 12.0199 62.2335 12.1888 62.5713L12.5266 62.9091C12.6955 63.2469 13.0333 63.4158 13.3711 63.7536L13.54 63.9225L13.8777 64.0914C14.2155 64.4292 14.5533 64.7669 14.7222 64.9358C14.7222 64.9358 14.8911 65.1047 15.06 65.1047C15.3978 65.4425 15.7356 65.6114 16.0733 65.9492L17.7623 67.3003C18.1001 67.4692 18.269 67.6381 18.6067 67.9759C18.7756 67.9759 18.7756 68.1448 18.9445 68.1448C18.9445 68.1448 19.1134 68.1448 19.1134 68.3137L20.2957 69.1582C20.8024 69.4959 21.1401 69.6648 21.6468 70.0026L21.9846 70.1715C22.3224 70.3404 22.6602 70.5093 22.998 70.6782C23.1669 70.8471 23.3358 70.8471 23.5047 71.016C23.6735 71.1849 24.0113 71.3538 24.3491 71.5227L24.6869 71.6916C25.0247 71.8605 25.5314 72.0294 25.8692 72.1982H26.038C26.5447 72.3671 26.8825 72.536 27.5581 72.8738C27.727 72.8738 27.727 72.8738 27.727 72.8738C28.0648 73.0427 28.5715 73.2116 28.9092 73.3805L29.0781 73.5494C29.5848 73.7183 30.0915 73.8872 30.5982 74.0561C30.7671 74.0561 30.7671 74.0561 30.7671 74.0561L31.1048 74.225C31.4426 74.3939 31.9493 74.5627 32.2871 74.5627C35.4961 75.0694 38.5361 75.4072 41.4073 75.4072C65.5591 75.4072 73.3282 55.9845 73.3282 55.8156C73.6659 54.9711 73.3282 54.1267 72.4837 53.7889C71.8081 53.4511 70.7948 53.62 70.2881 54.2956C64.039 62.4024 52.3854 65.4425 39.0428 62.4024C38.705 62.4024 38.3673 62.2335 38.0295 62.0646L37.3539 61.8958C36.8472 61.7269 36.5094 61.558 36.0028 61.558H35.8339C35.4961 61.3891 35.1583 61.2202 34.8205 61.2202L34.4827 60.5446C34.1449 60.3757 33.6382 60.2068 33.3005 60.0379H32.9627C32.6249 59.869 32.2871 59.7001 31.9493 59.5312L31.6115 59.3624C31.4426 59.1935 31.1048 59.1935 30.7671 59.0246L29.4159 58.1801C29.247 58.0112 29.0781 58.0112 29.0781 58.0112C28.7403 57.6734 28.2337 57.5045 27.727 57.1667C27.5581 57.1667 27.5581 56.9979 27.3892 56.9979C27.0514 56.829 26.8825 56.6601 26.3758 56.3223L26.2069 56.1534C25.8692 55.9845 25.7003 55.8156 25.3625 55.6467C25.1936 55.4778 25.0247 55.4778 24.8558 55.3089C24.6869 55.14 24.518 54.9711 24.1802 54.8022L23.8424 54.4645C23.5047 54.2956 23.1669 53.9578 22.998 53.62C22.998 53.62 22.998 53.62 22.8291 53.4511C22.4913 53.1133 22.1535 52.7755 21.8157 52.4377L20.6335 51.2555C20.2957 50.9177 20.1268 50.5799 19.789 50.2421C19.4512 49.9043 19.1134 49.5665 18.7756 49.0599L18.1001 48.2154C17.9312 48.0465 17.9312 48.0465 17.7623 47.8776C17.5934 47.5398 17.2556 47.202 17.0867 46.8643C10.4999 37.744 8.81094 18.9969 13.8777 12.0722C14.3844 11.3967 14.2155 10.3833 13.7088 9.87664C13.3711 9.53885 12.8644 9.36996 12.5266 9.36996Z" fill="white"/>
</svg>
