<svg width="34" height="34" viewBox="0 0 34 34" fill="none" xmlns="http://www.w3.org/2000/svg">
<path d="M20.4734 0C20.3974 0 20.3214 -7.36117e-08 20.2454 0.0759999C19.5614 0.38 18.8774 1.368 18.7254 1.52C17.8894 2.66 17.5094 3.952 17.5094 5.32C17.5094 6.308 17.6614 7.296 18.1174 8.284C19.0294 10.488 21.0054 12.312 23.2854 13.224C23.3614 13.224 23.4374 13.3 23.5894 13.3L23.7414 13.376H23.8174C23.9694 13.452 24.0454 13.452 24.1974 13.452C24.8054 13.604 25.4134 13.604 25.9454 13.68C26.0214 13.68 26.0974 13.68 26.2494 13.68C30.4294 13.68 32.0254 10.716 32.5574 9.728C32.6334 9.652 32.6334 9.576 32.7094 9.5C32.9374 9.12 32.8614 8.664 32.4814 8.436C32.1014 8.208 31.6454 8.284 31.4174 8.664C30.2774 10.336 28.3774 10.792 25.7934 10.108C25.5654 10.032 25.4134 9.956 25.1854 9.88C24.9574 9.804 24.6534 9.652 24.4254 9.576C23.9694 9.348 23.5134 9.044 23.1334 8.74C20.8534 6.916 19.9414 3.192 21.2334 1.064C21.3854 0.76 21.3854 0.38 21.1574 0.152C20.9294 0.076 20.7014 0 20.4734 0ZM13.7094 1.52C13.5574 1.52 13.3294 1.596 13.2534 1.672C12.1134 2.584 10.8974 4.104 10.8974 4.18C8.84543 7.22 8.69343 11.476 10.5174 15.124C10.8214 15.732 11.1254 16.264 11.5054 16.72L11.5814 16.872C11.8854 17.328 12.1894 17.784 12.6454 18.164C12.7974 18.316 12.9494 18.468 13.1014 18.62L13.1774 18.696L13.2534 18.772C13.4054 18.924 13.5574 19.076 13.7094 19.228C13.7094 19.228 13.7094 19.228 13.7854 19.304C13.9374 19.456 14.1654 19.608 14.3934 19.836L14.4694 19.912C14.6974 20.064 14.8494 20.216 15.0774 20.368C15.0774 20.368 15.1534 20.368 15.1534 20.444C15.2294 20.52 15.3054 20.52 15.3814 20.596L15.4574 20.672L15.5334 20.748C15.6854 20.824 15.8374 20.976 16.0654 21.052C16.2174 21.128 16.3694 21.204 16.4454 21.28C16.5214 21.28 16.5214 21.356 16.5974 21.356L16.8254 21.508H16.9014C17.0534 21.584 17.2054 21.66 17.3574 21.736L17.5854 21.812C17.7374 21.888 17.8894 21.964 18.1174 22.04H18.1934H18.2694C18.4214 22.116 18.5734 22.116 18.7254 22.192L19.0294 22.268C19.1814 22.344 19.4094 22.42 19.6374 22.42C20.7014 22.572 21.6894 22.648 22.6014 22.648C22.6774 22.648 22.8294 22.648 22.9054 22.648C31.2654 22.496 33.4694 15.352 33.4694 15.276C33.5454 14.896 33.3934 14.516 33.0894 14.364C32.7854 14.212 32.3294 14.288 32.1014 14.592C29.9734 17.708 25.9454 19 21.8414 17.936C21.6894 17.86 21.4614 17.86 21.2334 17.784C21.1574 17.784 21.1574 17.784 21.0814 17.708C20.9294 17.632 20.8534 17.632 20.7014 17.556L20.4734 17.48C20.3214 17.404 20.2454 17.404 20.0934 17.328L20.0174 17.48C19.8654 17.404 19.6374 17.328 19.4854 17.252L19.0294 17.024C18.9534 16.948 18.8774 16.948 18.7254 16.872L18.6494 16.796L18.5734 16.72C18.4974 16.644 18.3454 16.568 18.2694 16.492L18.1934 16.416L18.1174 16.34C18.0414 16.264 17.9654 16.264 17.8894 16.188C17.7374 16.036 17.5094 15.884 17.2814 15.732L17.2054 15.656C15.2294 14.06 13.7854 12.008 13.1014 9.728C12.4934 7.676 12.9494 5.016 14.3934 2.508C14.5454 2.204 14.5454 1.824 14.2414 1.52C14.0894 1.596 13.8614 1.52 13.7094 1.52ZM5.34943 3.8C5.19743 3.8 4.96943 3.876 4.81743 4.028C3.37343 5.32 2.30943 6.992 2.15743 7.144C-0.958573 11.628 -0.350573 18.696 1.77743 22.952C1.85343 23.028 1.85343 23.104 1.92943 23.18V23.256C2.00543 23.332 2.00543 23.408 2.00543 23.484C2.00543 23.56 2.08143 23.636 2.08143 23.636C2.08143 23.712 2.15743 23.788 2.23343 23.864L2.53743 24.32C2.53743 24.396 2.61343 24.472 2.61343 24.472C2.68943 24.548 2.68943 24.624 2.76543 24.7L2.91743 24.852C2.91743 24.928 2.99343 24.928 2.99343 25.004C3.14543 25.156 3.22143 25.384 3.37343 25.536L3.44943 25.612C3.52543 25.764 3.67743 25.916 3.75343 26.068L4.20943 26.6L4.28543 26.676L4.36143 26.752C4.51343 26.904 4.66543 27.056 4.74143 27.208L4.81743 27.284C4.96943 27.436 5.12143 27.588 5.19743 27.74L5.34943 27.892C5.42543 28.044 5.57743 28.12 5.72943 28.272L5.80543 28.348L5.95743 28.424C6.10943 28.576 6.26143 28.728 6.33743 28.804C6.33743 28.804 6.41343 28.88 6.48943 28.88C6.64143 29.032 6.79343 29.108 6.94543 29.26L7.70543 29.868C7.85743 29.944 7.93343 30.02 8.08543 30.172C8.16143 30.172 8.16143 30.248 8.23743 30.248C8.23743 30.248 8.31343 30.248 8.31343 30.324L8.84543 30.704C9.07343 30.856 9.22543 30.932 9.45343 31.084L9.60543 31.16C9.75743 31.236 9.90943 31.312 10.0614 31.388C10.1374 31.464 10.2134 31.464 10.2894 31.54C10.3654 31.616 10.5174 31.692 10.6694 31.768L10.8214 31.844C10.9734 31.92 11.2014 31.996 11.3534 32.072H11.4294C11.6574 32.148 11.8094 32.224 12.1134 32.376C12.1894 32.376 12.1894 32.376 12.1894 32.376C12.3414 32.452 12.5694 32.528 12.7214 32.604L12.7974 32.68C13.0254 32.756 13.2534 32.832 13.4814 32.908C13.5574 32.908 13.5574 32.908 13.5574 32.908L13.7094 32.984C13.8614 33.06 14.0894 33.136 14.2414 33.136C15.6854 33.364 17.0534 33.516 18.3454 33.516C29.2134 33.516 32.7094 24.776 32.7094 24.7C32.8614 24.32 32.7094 23.94 32.3294 23.788C32.0254 23.636 31.5694 23.712 31.3414 24.016C28.5294 27.664 23.2854 29.032 17.2814 27.664C17.1294 27.664 16.9774 27.588 16.8254 27.512L16.5214 27.436C16.2934 27.36 16.1414 27.284 15.9134 27.284H15.8374C15.6854 27.208 15.5334 27.132 15.3814 27.132L15.2294 26.828C15.0774 26.752 14.8494 26.676 14.6974 26.6H14.5454C14.3934 26.524 14.2414 26.448 14.0894 26.372L13.9374 26.296C13.8614 26.22 13.7094 26.22 13.5574 26.144L12.9494 25.764C12.8734 25.688 12.7974 25.688 12.7974 25.688C12.6454 25.536 12.4174 25.46 12.1894 25.308C12.1134 25.308 12.1134 25.232 12.0374 25.232C11.8854 25.156 11.8094 25.08 11.5814 24.928L11.5054 24.852C11.3534 24.776 11.2774 24.7 11.1254 24.624C11.0494 24.548 10.9734 24.548 10.8974 24.472C10.8214 24.396 10.7454 24.32 10.5934 24.244L10.4414 24.092C10.2894 24.016 10.1374 23.864 10.0614 23.712C10.0614 23.712 10.0614 23.712 9.98543 23.636C9.83343 23.484 9.68143 23.332 9.52943 23.18L8.99743 22.648C8.84543 22.496 8.76943 22.344 8.61743 22.192C8.46543 22.04 8.31343 21.888 8.16143 21.66L7.85743 21.28C7.78143 21.204 7.78143 21.204 7.70543 21.128C7.62943 20.976 7.47743 20.824 7.40143 20.672C4.43743 16.568 3.67743 8.132 5.95743 5.016C6.18543 4.712 6.10943 4.256 5.88143 4.028C5.72943 3.876 5.50143 3.8 5.34943 3.8Z" fill="white"/>
</svg>
