<svg width="37" height="36" viewBox="0 0 37 36" fill="none" xmlns="http://www.w3.org/2000/svg">
<path d="M33.0357 0H3.96429C1.77567 0 0 1.72168 0 3.84375V32.0312C0 34.1533 1.77567 35.875 3.96429 35.875H33.0357C35.2243 35.875 37 34.1533 37 32.0312V3.84375C37 1.72168 35.2243 0 33.0357 0ZM20.1353 27.9793C20.1353 31.4707 18.021 33.0643 14.9404 33.0643C12.1571 33.0643 10.5467 31.6709 9.72076 29.9812L12.5536 28.3236C13.0987 29.2605 13.5942 30.0533 14.7917 30.0533C15.9315 30.0533 16.6583 29.6209 16.6583 27.9312V16.4721H20.1353V27.9793ZM28.3612 33.0643C25.1319 33.0643 23.0424 31.5748 22.0266 29.6209L24.8594 28.0354C25.6027 29.2125 26.5772 30.0854 28.2868 30.0854C29.7239 30.0854 30.6489 29.3887 30.6489 28.4197C30.6489 27.2666 29.7074 26.8582 28.1134 26.1775L27.2462 25.8172C24.7355 24.7842 23.0754 23.4789 23.0754 20.7322C23.0754 18.2018 25.0658 16.2799 28.1629 16.2799C30.3763 16.2799 31.9621 17.0246 33.1018 18.9785L30.3929 20.6602C29.7982 19.6271 29.154 19.2188 28.1547 19.2188C27.1388 19.2188 26.4946 19.8434 26.4946 20.6602C26.4946 21.6691 27.1388 22.0775 28.6337 22.7102L29.5009 23.0705C32.4576 24.2957 34.1176 25.5529 34.1176 28.3717C34.1176 31.3986 31.6565 33.0643 28.3612 33.0643Z" fill="white"/>
</svg>
