<svg width="83" height="80" viewBox="0 0 83 80" fill="none" xmlns="http://www.w3.org/2000/svg">
<path d="M73.4795 0H8.87469C4.01098 0 0.0649414 3.82605 0.0649414 8.54189V71.1824C0.0649414 75.8982 4.01098 79.7243 8.87469 79.7243H73.4795C78.3433 79.7243 82.2893 75.8982 82.2893 71.1824V8.54189C82.2893 3.82605 78.3433 0 73.4795 0ZM44.8111 62.1778C44.8111 69.9367 40.1126 73.478 33.2667 73.478C27.0815 73.478 23.5026 70.3816 21.6672 66.6267L27.9625 62.943C29.1738 65.0251 30.275 66.7869 32.9363 66.7869C35.4691 66.7869 37.0843 65.8259 37.0843 62.071V36.6055H44.8111V62.1778ZM63.0914 73.478C55.9151 73.478 51.2716 70.168 49.0141 65.8259L55.3094 62.3024C56.9613 64.9183 59.127 66.8581 62.9262 66.8581C66.1197 66.8581 68.1753 65.3098 68.1753 63.1566C68.1753 60.594 66.083 59.6864 62.5408 58.1738L60.6136 57.373C55.0341 55.0774 51.345 52.1767 51.345 46.0728C51.345 40.4494 55.7683 36.1785 62.6509 36.1785C67.5697 36.1785 71.0936 37.8334 73.6264 42.1756L67.6064 45.9126C66.2849 43.617 64.8533 42.7094 62.6325 42.7094C60.375 42.7094 58.9434 44.0975 58.9434 45.9126C58.9434 48.1549 60.375 49.0625 63.697 50.4683L65.6242 51.2691C72.1948 53.9918 75.8839 56.7858 75.8839 63.0498C75.8839 69.7765 70.4145 73.478 63.0914 73.478Z" fill="white"/>
</svg>
