<svg width="89" height="81" viewBox="0 0 89 81" fill="none" xmlns="http://www.w3.org/2000/svg">
<path d="M72.606 26.2816C71.6685 25.9612 70.731 25.6587 69.7935 25.374C69.9497 24.7156 70.0886 24.0571 70.2275 23.3987C72.363 12.7925 70.9567 4.26841 66.217 1.4567C61.6509 -1.23043 54.2028 1.56348 46.6679 8.29021C45.9213 8.94865 45.1921 9.64268 44.4977 10.3367C44.0289 9.87402 43.5428 9.41134 43.0567 8.96645C35.1572 1.77702 27.2403 -1.24823 22.5006 1.58127C17.9519 4.2862 16.5977 12.312 18.5074 22.3487C18.6984 23.3453 18.9067 24.324 19.1498 25.3206C18.0387 25.6409 16.9449 25.9968 15.9205 26.3705C6.64948 29.6627 0 34.859 0 40.2333C0 45.7855 7.08352 51.3556 16.7192 54.7367C17.5005 55.0037 18.2817 55.2706 19.0804 55.5019C18.8199 56.5697 18.5942 57.6196 18.3859 58.7051C16.5629 68.5817 17.9866 76.4118 22.5353 79.0989C27.2229 81.875 35.1051 79.0277 42.7789 72.1408C43.3865 71.5892 43.9942 71.0197 44.6018 70.4146C45.3658 71.1799 46.1644 71.9095 46.963 72.6213C54.3938 79.1701 61.7377 81.8216 66.2691 79.1345C70.9567 76.3584 72.4845 67.9411 70.5053 57.6908C70.349 56.9078 70.1754 56.107 69.9844 55.2884C70.54 55.1282 71.0782 54.9503 71.6164 54.7723C81.634 51.3734 88.8912 45.8745 88.8912 40.2333C88.8912 34.8412 82.0507 29.6093 72.606 26.2816ZM49.1158 11.1731C55.5743 5.40733 61.5988 3.14729 64.3419 4.76669C67.276 6.49286 68.4045 13.4687 66.5642 22.6335C66.4427 23.2385 66.3212 23.8258 66.1649 24.413C62.3106 23.5232 58.4043 22.8826 54.4806 22.5267C52.2236 19.2167 49.7582 16.0491 47.0845 13.0772C47.7617 12.4188 48.4214 11.7959 49.1158 11.1731ZM29.0285 49.4692C29.914 51.0174 30.8168 52.5657 31.7717 54.0783C29.0632 53.7758 26.3722 53.3309 23.7159 52.7436C24.4798 50.181 25.4347 47.5295 26.5458 44.8246C27.3445 46.3906 28.1604 47.9388 29.0285 49.4692ZM23.768 28.0611C26.268 27.4917 28.9244 27.029 31.6848 26.6731C30.7647 28.1501 29.8619 29.6627 29.0112 31.1931C28.1604 32.7058 27.3271 34.254 26.5458 35.82C25.452 33.1685 24.5319 30.5703 23.768 28.0611ZM28.525 40.3223C29.6709 37.8665 30.9209 35.4641 32.2404 33.0973C33.5599 30.7305 34.9835 28.4348 36.4766 26.1748C39.0809 25.979 41.7372 25.8723 44.4456 25.8723C47.154 25.8723 49.8277 25.979 52.4145 26.1748C53.8903 28.417 55.2966 30.7127 56.6334 33.0617C57.9702 35.4107 59.2203 37.8131 60.4009 40.2511C59.2376 42.7069 57.9876 45.1271 56.6508 47.5117C55.3313 49.8785 53.925 52.1742 52.4493 54.452C49.8624 54.6477 47.1714 54.7367 44.4456 54.7367C41.7198 54.7367 39.0809 54.6477 36.5287 54.4876C35.0183 52.2275 33.5946 49.9141 32.2578 47.5473C30.9209 45.1805 29.6883 42.7781 28.525 40.3223ZM59.88 49.4336C60.7655 47.8676 61.5988 46.2838 62.4148 44.6822C63.5259 47.2626 64.4982 49.8785 65.3489 52.5657C62.6579 53.1885 59.9321 53.669 57.189 53.9893C58.1265 52.4945 59.0119 50.9641 59.88 49.4336ZM62.3801 35.82C61.5641 34.254 60.7307 32.688 59.8627 31.1576C59.0119 29.6449 58.1265 28.1501 57.2063 26.6731C60.0015 27.029 62.6752 27.5095 65.1753 28.0967C64.3767 30.7305 63.4391 33.293 62.3801 35.82ZM44.4803 15.8C46.3033 17.8287 48.0221 19.9641 49.6193 22.1708C46.1817 22.0106 42.7268 22.0106 39.2892 22.1708C40.9906 19.8751 42.7442 17.7397 44.4803 15.8ZM24.3409 4.89125C27.2576 3.14729 33.7335 5.63867 40.5566 11.8315C40.9906 12.223 41.4247 12.6501 41.8761 13.0772C39.185 16.0491 36.7023 19.2167 34.428 22.5267C30.5043 22.8826 26.6153 23.5054 22.761 24.3774C22.5353 23.4699 22.3443 22.5445 22.1533 21.6191C20.5214 13.006 21.5978 6.51065 24.3409 4.89125ZM20.0873 51.8005C19.3581 51.5869 18.6463 51.3556 17.9345 51.1064C14.2365 49.9141 10.035 48.0278 6.99671 45.5542C5.24319 44.3085 4.0626 42.3866 3.73274 40.2333C3.73274 36.9767 9.21899 32.8125 17.1359 29.983C18.1255 29.6271 19.1324 29.3068 20.1394 29.0043C21.32 32.8659 22.7436 36.6564 24.393 40.3223C22.7263 44.0416 21.2853 47.8854 20.0873 51.8005ZM40.3309 69.2401C37.4662 71.9273 34.1502 74.0627 30.539 75.522C28.6118 76.4651 26.3896 76.5541 24.4104 75.7533C21.6499 74.1161 20.504 67.8343 22.0665 59.3814C22.2575 58.3848 22.4659 57.3883 22.7089 56.4095C26.5979 57.2637 30.5216 57.851 34.4974 58.1535C36.7891 61.4813 39.3066 64.6667 41.9976 67.6563C41.442 68.208 40.8865 68.7419 40.3309 69.2401ZM44.5845 64.9158C42.8136 62.9583 41.0427 60.7872 39.3239 58.456C40.9906 58.5272 42.7094 58.5628 44.4456 58.5628C46.2338 58.5628 47.9873 58.5272 49.7235 58.4382C48.1262 60.6982 46.4074 62.8515 44.5845 64.9158ZM67.276 70.2545C67.1198 72.4255 66.0781 74.4542 64.4114 75.8245C61.6509 77.4617 55.7653 75.3262 49.411 69.7384C48.6818 69.0978 47.9526 68.4037 47.2061 67.6919C49.8624 64.6845 52.3104 61.4991 54.5327 58.1535C58.5085 57.8154 62.4669 57.1925 66.3732 56.2849C66.5469 57.0146 66.7031 57.7442 66.842 58.456C67.6927 62.2999 67.8316 66.3039 67.276 70.2545ZM70.4358 51.1242C69.9497 51.2844 69.4636 51.4445 68.9601 51.5869C67.7448 47.7075 66.2517 43.917 64.5329 40.2333C66.1996 36.603 67.6059 32.8659 68.7865 29.0399C69.6893 29.3068 70.5574 29.5915 71.3907 29.8763C79.4812 32.7236 85.1584 36.9589 85.1584 40.1977C85.1584 43.6857 79.0993 48.1879 70.4358 51.1242ZM44.4456 48.4549C48.8381 48.4549 52.3972 44.8068 52.3972 40.3045C52.3972 35.8022 48.8381 32.1541 44.4456 32.1541C40.0531 32.1541 36.494 35.8022 36.494 40.3045C36.494 44.8068 40.0531 48.4549 44.4456 48.4549Z" fill="white"/>
</svg>
