<svg width="40" height="36" viewBox="0 0 40 36" fill="none" xmlns="http://www.w3.org/2000/svg">
<path d="M32.6719 11.6263C32.25 11.4822 31.8281 11.3461 31.4062 11.2179C31.4766 10.9217 31.5391 10.6254 31.6016 10.3291C32.5625 5.55642 31.9297 1.72068 29.7969 0.455444C27.7422 -0.753736 24.3906 0.503491 21 3.53044C20.6641 3.82673 20.3359 4.13904 20.0234 4.45134C19.8125 4.24314 19.5938 4.03494 19.375 3.83474C15.8203 0.599585 12.2578 -0.761744 10.125 0.511499C8.07812 1.72869 7.46875 5.34021 8.32812 9.85662C8.41406 10.3051 8.50781 10.7455 8.61719 11.1939C8.11719 11.3381 7.625 11.4982 7.16406 11.6664C2.99219 13.1478 0 15.4861 0 17.9045C0 20.4029 3.1875 22.9094 7.52344 24.4308C7.875 24.551 8.22656 24.6711 8.58594 24.7752C8.46875 25.2556 8.36719 25.7281 8.27344 26.2166C7.45312 30.6609 8.09375 34.1844 10.1406 35.3935C12.25 36.6427 15.7969 35.3615 19.25 32.2625C19.5234 32.0142 19.7969 31.758 20.0703 31.4857C20.4141 31.8301 20.7734 32.1584 21.1328 32.4787C24.4766 35.4256 27.7812 36.6187 29.8203 35.4095C31.9297 34.1603 32.6172 30.3726 31.7266 25.7601C31.6562 25.4078 31.5781 25.0474 31.4922 24.6791C31.7422 24.607 31.9844 24.5269 32.2266 24.4469C36.7344 22.9174 40 20.4429 40 17.9045C40 15.4781 36.9219 13.1238 32.6719 11.6263ZM22.1016 4.82771C25.0078 2.23318 27.7188 1.21619 28.9531 1.9449C30.2734 2.72166 30.7812 5.86072 29.9531 9.98474C29.8984 10.257 29.8438 10.5213 29.7734 10.7855C28.0391 10.3851 26.2812 10.0969 24.5156 9.9367C23.5 8.44724 22.3906 7.02185 21.1875 5.68455C21.4922 5.38826 21.7891 5.10798 22.1016 4.82771ZM13.0625 22.0605C13.4609 22.7572 13.8672 23.4539 14.2969 24.1345C13.0781 23.9984 11.8672 23.7982 10.6719 23.534C11.0156 22.3808 11.4453 21.1877 11.9453 19.9705C12.3047 20.6752 12.6719 21.3719 13.0625 22.0605ZM10.6953 12.4271C11.8203 12.1709 13.0156 11.9627 14.2578 11.8025C13.8438 12.4672 13.4375 13.1478 13.0547 13.8365C12.6719 14.5172 12.2969 15.2138 11.9453 15.9185C11.4531 14.7254 11.0391 13.5562 10.6953 12.4271ZM12.8359 17.9445C13.3516 16.8394 13.9141 15.7584 14.5078 14.6933C15.1016 13.6283 15.7422 12.5953 16.4141 11.5783C17.5859 11.4902 18.7812 11.4422 20 11.4422C21.2188 11.4422 22.4219 11.4902 23.5859 11.5783C24.25 12.5873 24.8828 13.6203 25.4844 14.6773C26.0859 15.7344 26.6484 16.8154 27.1797 17.9125C26.6562 19.0176 26.0937 20.1066 25.4922 21.1797C24.8984 22.2447 24.2656 23.2777 23.6016 24.3027C22.4375 24.3908 21.2266 24.4308 20 24.4308C18.7734 24.4308 17.5859 24.3908 16.4375 24.3187C15.7578 23.3017 15.1172 22.2607 14.5156 21.1957C13.9141 20.1306 13.3594 19.0496 12.8359 17.9445ZM26.9453 22.0445C27.3438 21.3398 27.7188 20.6271 28.0859 19.9064C28.5859 21.0676 29.0234 22.2447 29.4062 23.4539C28.1953 23.7342 26.9688 23.9504 25.7344 24.0945C26.1562 23.4219 26.5547 22.7332 26.9453 22.0445ZM28.0703 15.9185C27.7031 15.2138 27.3281 14.5092 26.9375 13.8205C26.5547 13.1398 26.1562 12.4672 25.7422 11.8025C27 11.9627 28.2031 12.1789 29.3281 12.4431C28.9688 13.6283 28.5469 14.7814 28.0703 15.9185ZM20.0156 6.90974C20.8359 7.82263 21.6094 8.78357 22.3281 9.77654C20.7812 9.70447 19.2266 9.70447 17.6797 9.77654C18.4453 8.74353 19.2344 7.78259 20.0156 6.90974ZM10.9531 2.00095C12.2656 1.21619 15.1797 2.33728 18.25 5.124C18.4453 5.30017 18.6406 5.49236 18.8438 5.68455C17.6328 7.02185 16.5156 8.44724 15.4922 9.9367C13.7266 10.0969 11.9766 10.3771 10.2422 10.7695C10.1406 10.3611 10.0547 9.9447 9.96875 9.5283C9.23438 5.65251 9.71875 2.72966 10.9531 2.00095ZM9.03906 23.1095C8.71094 23.0135 8.39062 22.9094 8.07031 22.7972C6.40625 22.2607 4.51562 21.4119 3.14844 20.2988C2.35938 19.7383 1.82812 18.8734 1.67969 17.9045C1.67969 16.439 4.14844 14.5652 7.71094 13.292C8.15625 13.1318 8.60938 12.9877 9.0625 12.8515C9.59375 14.5892 10.2344 16.2949 10.9766 17.9445C10.2266 19.6181 9.57812 21.3478 9.03906 23.1095ZM18.1484 30.9572C16.8594 32.1664 15.3672 33.1273 13.7422 33.784C12.875 34.2084 11.875 34.2484 10.9844 33.8881C9.74219 33.1513 9.22656 30.3246 9.92969 26.5209C10.0156 26.0724 10.1094 25.624 10.2188 25.1836C11.9688 25.5679 13.7344 25.8322 15.5234 25.9683C16.5547 27.4658 17.6875 28.8992 18.8984 30.2445C18.6484 30.4928 18.3984 30.733 18.1484 30.9572ZM20.0625 29.0113C19.2656 28.1304 18.4688 27.1535 17.6953 26.1045C18.4453 26.1365 19.2188 26.1525 20 26.1525C20.8047 26.1525 21.5938 26.1365 22.375 26.0965C21.6562 27.1135 20.8828 28.0824 20.0625 29.0113ZM30.2734 31.4136C30.2031 32.3906 29.7344 33.3035 28.9844 33.9201C27.7422 34.6568 25.0938 33.6959 22.2344 31.1814C21.9062 30.8931 21.5781 30.5808 21.2422 30.2605C22.4375 28.9072 23.5391 27.4738 24.5391 25.9683C26.3281 25.8162 28.1094 25.5359 29.8672 25.1275C29.9453 25.4558 30.0156 25.7842 30.0781 26.1045C30.4609 27.8342 30.5234 29.6359 30.2734 31.4136ZM31.6953 22.8052C31.4766 22.8773 31.2578 22.9494 31.0312 23.0135C30.4844 21.2677 29.8125 19.5621 29.0391 17.9045C29.7891 16.2709 30.4219 14.5892 30.9531 12.8676C31.3594 12.9877 31.75 13.1158 32.125 13.2439C35.7656 14.5252 38.3203 16.431 38.3203 17.8885C38.3203 19.458 35.5938 21.484 31.6953 22.8052ZM20 21.6041C21.9766 21.6041 23.5781 19.9625 23.5781 17.9365C23.5781 15.9105 21.9766 14.2689 20 14.2689C18.0234 14.2689 16.4219 15.9105 16.4219 17.9365C16.4219 19.9625 18.0234 21.6041 20 21.6041Z" fill="white"/>
</svg>
