<svg width="49" height="36" viewBox="0 0 49 36" fill="none" xmlns="http://www.w3.org/2000/svg">
<path d="M23.1096 27.2165C23.0867 27.2615 23.0637 27.2975 23.1096 27.2165V27.2165ZM42.1839 20.692C40.644 20.6915 39.1246 21.0379 37.7432 21.7044C37.2915 20.812 36.8244 20.032 36.7479 19.4471C36.656 18.7647 36.5564 18.3597 36.6636 17.5498C36.7708 16.7398 37.2532 15.5924 37.2455 15.5099C37.2379 15.4274 37.1383 15.015 36.1507 15.0075C35.163 15 34.3131 15.1949 34.2144 15.4499C34.0399 15.9159 33.9042 16.3949 33.8086 16.8823C33.6325 17.7597 31.834 20.8945 30.8157 22.5293C30.4788 21.8919 30.1956 21.3294 30.1343 20.8795C30.0424 20.197 29.9429 19.7921 30.0501 18.9821C30.1573 18.1722 30.6396 17.0248 30.632 16.9423C30.6243 16.8598 30.5248 16.4473 29.5379 16.4398C28.551 16.4323 27.7004 16.6273 27.6008 16.8823C27.5013 17.1373 27.3941 17.7372 27.195 18.3147C26.996 18.8921 24.6003 24.1117 23.9733 25.4691C23.6517 26.159 23.3761 26.714 23.177 27.089C23.1464 27.149 23.1234 27.1865 23.1081 27.2165C23.1311 27.179 23.1464 27.1415 23.1464 27.1565C22.9779 27.4789 22.8784 27.6589 22.8784 27.6589V27.6664C22.7482 27.9064 22.6028 28.1239 22.5339 28.1239C22.4879 28.1239 22.3884 27.4939 22.5568 26.6315C22.9167 24.8167 23.7665 21.9969 23.7589 21.8994C23.7512 21.8469 23.9197 21.3594 23.2 21.097C22.5032 20.8495 22.2506 21.2619 22.1893 21.2619C22.1281 21.2619 22.0821 21.4119 22.0821 21.4119C22.0821 21.4119 22.8554 18.2322 20.5976 18.2322C19.1888 18.2322 17.2288 19.7471 16.2656 21.1195C15.6608 21.4419 14.3515 22.1394 12.9734 22.8818C12.4451 23.1668 11.9015 23.4593 11.3885 23.7367C11.3502 23.6992 11.3196 23.6618 11.2813 23.6243C8.54114 20.7595 3.48183 18.7347 3.69621 14.8875C3.77277 13.4851 4.27043 9.80288 13.4251 5.33325C20.9283 1.67355 26.9271 2.67846 27.9599 4.91328C29.4452 8.10052 24.7527 14.0325 16.9608 14.8875C13.9909 15.2099 12.4298 14.085 12.0393 13.6651C11.6335 13.2226 11.5723 13.2001 11.4192 13.2826C11.1665 13.4176 11.3273 13.8076 11.4192 14.04C11.6488 14.6325 12.6059 15.6824 14.2359 16.2074C15.6677 16.6648 19.1498 16.9198 23.36 15.3224C28.0901 13.5376 31.772 8.56548 30.6925 4.40332C29.593 0.173668 22.4328 -1.21372 15.6623 1.14109C11.6282 2.54347 7.26559 4.74829 4.12726 7.62056C0.399388 11.0403 -0.197041 14.0175 0.0479621 15.2624C0.920019 19.6796 7.13544 22.5593 9.62298 24.6892C9.50048 24.7567 9.38563 24.8167 9.27844 24.8767C8.03123 25.4841 3.29272 27.9139 2.10675 30.4787C0.766892 33.3885 2.32879 35.4733 3.35397 35.7583C6.55355 36.6282 9.8297 35.0608 11.5899 32.4885C13.3501 29.9162 13.1365 26.5565 12.3249 25.0266C12.3172 25.0041 12.3019 24.9891 12.2943 24.9666C12.6158 24.7792 12.9451 24.5917 13.2743 24.4042C13.909 24.0367 14.5292 23.6992 15.0728 23.4068C14.7665 24.2167 14.5445 25.1916 14.4296 26.6015C14.2918 28.2514 14.9885 30.3887 15.892 31.2286C16.2901 31.5961 16.7717 31.6036 17.0703 31.6036C18.1269 31.6036 18.6016 30.7487 19.1291 29.7288C19.7799 28.4839 20.3541 27.0365 20.3541 27.0365C20.3541 27.0365 19.6344 30.9512 21.6021 30.9512C22.321 30.9512 23.0407 30.0437 23.363 29.5788V29.5863C23.363 29.5863 23.3784 29.5563 23.4166 29.4963C23.4932 29.3838 23.5315 29.3163 23.5315 29.3163V29.2938C23.8224 28.8063 24.4579 27.6889 25.4142 25.8441C26.6545 23.4593 27.8405 20.482 27.8405 20.482C27.9551 21.1365 28.1136 21.7828 28.3152 22.4169C28.5295 23.1293 28.9813 23.9092 29.3411 24.6667C29.0502 25.0566 28.8741 25.2816 28.8741 25.2816C28.8746 25.2874 28.8774 25.2927 28.8817 25.2966C28.652 25.5966 28.3917 25.9191 28.1238 26.234C27.1445 27.374 25.98 28.6788 25.8269 29.0538C25.6431 29.4963 25.689 29.8263 26.0412 30.0812C26.3015 30.2762 26.7609 30.3062 27.2425 30.2687C28.123 30.2087 28.7432 29.9987 29.0418 29.8637C29.5922 29.6704 30.1125 29.4028 30.5876 29.0688C31.5446 28.3789 32.1265 27.389 32.0729 26.0841C32.0423 25.3641 31.8049 24.6442 31.514 23.9692C31.5982 23.8492 31.6901 23.7217 31.7743 23.5943C33.2895 21.4269 34.4609 19.0481 34.4609 19.0481C34.5755 19.7026 34.7341 20.349 34.9356 20.983C35.1194 21.5904 35.4784 22.2579 35.8077 22.9103C34.3843 24.0427 33.5039 25.3551 33.1976 26.2175C32.631 27.8149 33.0751 28.5349 33.9096 28.6998C34.2848 28.7748 34.8208 28.6024 35.2189 28.4374C35.8102 28.2445 36.3677 27.9637 36.8719 27.6049C37.8289 26.915 38.7546 25.9476 38.6933 24.6352C38.6704 24.0427 38.5019 23.4503 38.2799 22.8803C39.4819 22.3854 41.0431 22.1154 43.0337 22.3404C47.2968 22.8278 48.1313 25.4376 47.9705 26.525C47.8097 27.6124 46.9139 28.2199 46.6153 28.3999C46.3167 28.5799 46.2249 28.6473 46.2478 28.7823C46.2861 28.9773 46.4239 28.9698 46.6766 28.9248C47.0288 28.8648 48.9115 28.0399 48.9957 26.0226C49.1182 23.4728 46.6153 20.668 42.1816 20.6905L42.1839 20.692ZM9.32438 31.5436C7.91638 33.051 5.94105 33.6209 5.09196 33.141C4.18085 32.622 4.5407 30.4037 6.27793 28.7973C7.3345 27.8224 8.69656 26.9225 9.60001 26.3675C9.80673 26.2475 10.1053 26.0676 10.4728 25.8501C10.5341 25.8126 10.5647 25.7976 10.5647 25.7976C10.6336 25.7526 10.7102 25.7151 10.7867 25.6701C11.4215 27.9499 10.8097 29.9597 9.32438 31.5421V31.5436ZM19.6114 24.6892C19.1214 25.8666 18.0886 28.8663 17.4608 28.7088C16.9248 28.5739 16.5956 26.2865 17.3536 24.0367C17.7364 22.9043 18.548 21.5544 19.0303 21.0295C19.8028 20.182 20.6527 19.9121 20.8518 20.2495C21.1197 20.692 19.9177 23.9542 19.6114 24.6892ZM28.11 28.6638C27.9033 28.7688 27.7118 28.8363 27.62 28.7838C27.5511 28.7463 27.7042 28.6039 27.7042 28.6039C27.7042 28.6039 28.7684 27.4864 29.1895 26.9765C29.4345 26.6765 29.7178 26.324 30.0233 25.9341C30.0233 25.9716 30.0309 26.0091 30.0309 26.0541C30.021 27.3965 28.7049 28.3039 28.1077 28.6638H28.11ZM34.6623 27.2015C34.5091 27.0965 34.5321 26.744 35.0451 25.6491C35.2442 25.2216 35.7028 24.5017 36.4998 23.8117C36.59 24.0729 36.6391 24.346 36.6453 24.6217C36.6376 26.309 35.4049 26.939 34.663 27.2015H34.6623Z" fill="white"/>
</svg>
