<svg width="109" height="81" viewBox="0 0 109 81" fill="none" xmlns="http://www.w3.org/2000/svg">
<path d="M51.4644 60.9636C51.4134 61.0635 51.3623 61.1435 51.4644 60.9636V60.9636ZM93.8527 46.4644C90.4306 46.4633 87.0542 47.2331 83.9843 48.7142C82.9804 46.731 81.9426 44.9978 81.7724 43.6978C81.5682 42.1813 81.347 41.2813 81.5853 39.4814C81.8235 37.6815 82.8954 35.1317 82.8784 34.9483C82.8613 34.765 82.6402 33.8484 80.4453 33.8317C78.2504 33.8151 76.3618 34.2484 76.1423 34.815C75.7547 35.8505 75.4531 36.915 75.2405 37.9982C74.8492 39.9481 70.8525 46.9143 68.5896 50.5475C67.8409 49.1309 67.2114 47.8809 67.0753 46.881C66.8711 45.3644 66.6499 44.4645 66.8881 42.6646C67.1263 40.8647 68.1982 38.3148 68.1812 38.1315C68.1642 37.9482 67.943 37.0315 65.7498 37.0149C63.5567 36.9982 61.6663 37.4315 61.4452 37.9982C61.224 38.5648 60.9858 39.8981 60.5434 41.1813C60.101 42.4646 54.7772 54.0639 53.3837 57.0804C52.6691 58.6137 52.0565 59.8469 51.6142 60.6802C51.5461 60.8136 51.4951 60.8969 51.461 60.9636C51.5121 60.8802 51.5461 60.7969 51.5461 60.8302C51.1718 61.5468 50.9506 61.9468 50.9506 61.9468V61.9635C50.6614 62.4968 50.3381 62.9801 50.1849 62.9801C50.0829 62.9801 49.8617 61.5802 50.236 59.6636C51.0357 55.6305 52.9243 49.3642 52.9073 49.1475C52.8903 49.0309 53.2646 47.9476 51.6652 47.3643C50.1169 46.8143 49.5554 47.7309 49.4193 47.7309C49.2832 47.7309 49.1811 48.0643 49.1811 48.0643C49.1811 48.0643 50.8996 40.998 45.882 40.998C42.7513 40.998 38.3956 44.3645 36.2551 47.4143C34.911 48.1309 32.0015 49.6808 28.9389 51.3308C27.7649 51.9641 26.5569 52.614 25.4169 53.2306C25.3318 53.1473 25.2638 53.064 25.1787 52.9807C19.0892 46.6143 7.846 42.1146 8.3224 33.5651C8.49255 30.4486 9.59849 22.2657 29.9428 12.3329C46.617 4.20004 59.9479 6.43325 62.2431 11.3996C65.544 18.4826 55.1158 31.6652 37.8001 33.5651C31.2001 34.2817 27.7309 31.7818 26.8631 30.8486C25.9614 29.8653 25.8252 29.8153 25.485 29.9986C24.9235 30.2986 25.2808 31.1652 25.485 31.6818C25.9954 32.9984 28.1222 35.3316 31.7446 36.4982C34.9263 37.5149 42.6645 38.0815 52.0208 34.5317C62.5324 30.5652 70.7147 19.5159 68.3156 10.2664C65.8723 0.866895 49.9604 -2.21627 34.9144 3.01678C25.9495 6.13327 16.2546 11.033 9.28032 17.416C0.995951 25.0156 -0.329481 31.6318 0.214984 34.3984C2.15294 44.2145 15.9653 50.6141 21.4934 55.3472C21.2211 55.4972 20.9659 55.6305 20.7277 55.7638C17.956 57.1138 7.42574 62.5135 4.79019 68.2132C1.81265 74.6795 5.28361 79.3125 7.56186 79.9458C14.6722 81.8791 21.9527 78.3959 25.8644 72.6796C29.776 66.9632 29.3013 59.497 27.4978 56.0972C27.4808 56.0472 27.4467 56.0138 27.4297 55.9638C28.1443 55.5472 28.876 55.1305 29.6076 54.7139C31.0181 53.8973 32.3963 53.1473 33.6043 52.4974C32.9237 54.2973 32.4303 56.4638 32.1751 59.597C31.8688 63.2634 33.4171 68.0132 35.4248 69.8797C36.3096 70.6963 37.3798 70.713 38.0434 70.713C40.3914 70.713 41.4463 68.8131 42.6186 66.5466C44.0648 63.7801 45.3409 60.5636 45.3409 60.5636C45.3409 60.5636 43.7415 69.2631 48.1143 69.2631C49.7119 69.2631 51.3113 67.2465 52.0276 66.2133V66.2299C52.0276 66.2299 52.0616 66.1633 52.1467 66.0299C52.3169 65.7799 52.4019 65.63 52.4019 65.63V65.58C53.0485 64.4967 54.4607 62.0135 56.5858 57.9137C59.3422 52.614 61.9777 45.9977 61.9777 45.9977C62.2324 47.4521 62.5848 48.8885 63.0326 50.2975C63.509 51.8807 64.5129 53.614 65.3126 55.2972C64.666 56.1638 64.2747 56.6638 64.2747 56.6638C64.2759 56.6766 64.282 56.6885 64.2917 56.6971C63.7813 57.3638 63.2028 58.0804 62.6072 58.7803C60.4311 61.3135 57.8432 64.2134 57.5029 65.0467C57.0945 66.0299 57.1966 66.7632 57.9793 67.3299C58.5578 67.7632 59.5787 67.8298 60.6489 67.7465C62.6055 67.6132 63.9837 67.1465 64.6473 66.8466C65.8706 66.4169 67.0268 65.8223 68.0825 65.08C70.2093 63.5467 71.5024 61.3469 71.3833 58.447C71.3153 56.8471 70.7878 55.2472 70.1413 53.7473C70.3284 53.4806 70.5326 53.1973 70.7198 52.914C74.087 48.0976 76.6902 42.8112 76.6902 42.8112C76.9448 44.2657 77.2972 45.702 77.7451 47.111C78.1534 48.4609 78.9514 49.9442 79.683 51.3941C76.52 53.9106 74.5634 56.8271 73.8828 58.7437C72.6237 62.2935 73.6105 63.8934 75.4651 64.26C76.2988 64.4267 77.4899 64.0434 78.3746 63.6767C79.6886 63.248 80.9275 62.6241 82.048 61.8268C84.1749 60.2936 86.2319 58.1437 86.0958 55.2272C86.0448 53.9106 85.6704 52.594 85.177 51.3274C87.8483 50.2275 91.3176 49.6275 95.7413 50.1275C105.215 51.2108 107.07 57.0104 106.712 59.427C106.355 61.8435 104.364 63.1934 103.701 63.5934C103.037 63.9934 102.833 64.1434 102.884 64.4434C102.969 64.8767 103.275 64.86 103.837 64.76C104.62 64.6267 108.803 62.7934 108.991 58.3104C109.263 52.644 103.701 46.411 93.8476 46.461L93.8527 46.4644ZM20.8298 70.5797C17.7008 73.9295 13.3111 75.1961 11.4242 74.1295C9.39943 72.9762 10.1991 68.0465 14.0597 64.4767C16.4077 62.3101 19.4346 60.3103 21.4423 59.077C21.9017 58.8103 22.5653 58.4104 23.382 57.9271C23.5181 57.8437 23.5861 57.8104 23.5861 57.8104C23.7393 57.7104 23.9094 57.6271 24.0796 57.5271C25.4901 62.5935 24.1306 67.0599 20.8298 70.5763V70.5797ZM43.6905 55.3472C42.6016 57.9637 40.3063 64.63 38.9111 64.28C37.7201 63.98 36.9885 58.897 38.6729 53.8973C39.5236 51.3807 41.3272 48.3809 42.3991 47.2143C44.1159 45.3311 46.0045 44.7311 46.4469 45.4811C47.0424 46.4644 44.3711 53.714 43.6905 55.3472ZM62.5766 64.18C62.1172 64.4134 61.6919 64.5633 61.4877 64.4467C61.3346 64.3634 61.6749 64.0467 61.6749 64.0467C61.6749 64.0467 64.0399 61.5635 64.9757 60.4302C65.5201 59.7636 66.1497 58.9803 66.8286 58.1137C66.8286 58.197 66.8456 58.2804 66.8456 58.3804C66.8234 61.3635 63.8987 63.3801 62.5715 64.18H62.5766ZM77.1377 60.9302C76.7974 60.6969 76.8484 59.9136 77.9884 57.4804C78.4308 56.5305 79.4499 54.9305 81.2211 53.3973C81.4216 53.9777 81.5306 54.5846 81.5444 55.1972C81.5274 58.947 78.7881 60.3469 77.1394 60.9302H77.1377Z" fill="white"/>
</svg>
